<svg version="1.2" xmlns="http://www.w3.org/2000/svg" viewBox="0 0 4000 2000" width="4000" height="2000">
	<title>Man inserting light bulbs into chandelier-ai</title>
	<style>
		.s0 { fill: #f6f2eb } 
		.s1 { opacity: .3;fill: #ffb589 } 
		.s2 { opacity: .3;fill: #d2e29b } 
		.s3 { fill: #ffedd8 } 
		.s4 { fill: #d2e29b } 
		.s5 { fill: #a54c3b } 
		.s6 { fill: #f5eef6 } 
		.s7 { fill: #ffffff } 
		.s8 { fill: #f58a4b } 
		.s9 { fill: #ffb589 } 
		.s10 { fill: #b95d27 } 
		.s11 { fill: #f26562 } 
		.s12 { fill: #44393d } 
		.s13 { fill: #e89880 } 
		.s14 { fill: #30262a } 
		.s15 { fill: #131f2d } 
		.s16 { fill: #a0462d } 
		.s17 { fill: #2e3552 } 
	</style>
	<g id="_Artboards_">
	</g>
	<g id="Layer 1">
		<g id="&lt;Group&gt;">
			<g id="background">
				<path id="&lt;Path&gt;" class="s0" d="m4000 0v2000h-4000v-2000z"/>
				<g id="&lt;Group&gt;">
					<path id="&lt;Path&gt;" class="s1" d="m727 116.2c0 145-117.5 262.5-262.5 262.5-145 0-262.5-117.5-262.5-262.5 0-41.7 9.7-81.2 27.1-116.2h470.8c17.4 35 27.1 74.5 27.1 116.2z"/>
					<path id="&lt;Path&gt;" class="s1" d="m1825 1933.6c0-82.8 67.2-150 150-150 82.8 0 150 67.2 150 150 0 23.8-5.6 46.4-15.5 66.4h-269c-9.9-20-15.5-42.6-15.5-66.4z"/>
					<path id="&lt;Path&gt;" class="s1" d="m4000 1677.3v322.7h-810c3-257.9 212.9-466 471.5-466 132.8 0 252.8 54.9 338.5 143.3z"/>
					<path id="&lt;Path&gt;" class="s1" d="m3831 1210c0 29.3-23.7 53-53 53-29.3 0-53-23.7-53-53 0-29.3 23.7-53 53-53 29.3 0 53 23.7 53 53z"/>
					<path id="&lt;Path&gt;" class="s2" d="m3788 521c0 56.3-45.7 102-102 102-56.3 0-102-45.7-102-102 0-56.3 45.7-102 102-102 56.3 0 102 45.7 102 102z"/>
					<path id="&lt;Path&gt;" class="s2" d="m1977 216c0 29.3-23.7 53-53 53-29.3 0-53-23.7-53-53 0-29.3 23.7-53 53-53 29.3 0 53 23.7 53 53z"/>
					<path id="&lt;Path&gt;" class="s2" d="m3728 1045c0 17.7-14.3 32-32 32-17.7 0-32-14.3-32-32 0-17.7 14.3-32 32-32 17.7 0 32 14.3 32 32z"/>
					<path id="&lt;Path&gt;" class="s2" d="m1782 311c0 17.7-14.3 32-32 32-17.7 0-32-14.3-32-32 0-17.7 14.3-32 32-32 17.7 0 32 14.3 32 32z"/>
				</g>
			</g>
		</g>
		<g id="&lt;Group&gt;">
			<path id="&lt;Path&gt;" class="s3" d="m2144.3 1659.6c0 0 106-409.8-58.8-620-212.6-271-454.4-151.7-557.5-158.3-103.1-6.6-79.4-229.2-377.7-295.8-226-50.6-708 98.3-624.6 523.2 63.4 323.1-276.4 194.7-207.7 551.6z"/>
			<g id="&lt;Group&gt;">
			</g>
			<g id="&lt;Group&gt;">
				<g id="&lt;Group&gt;">
				</g>
			</g>
			<g id="&lt;Group&gt;">
				<g id="&lt;Group&gt;">
					<path id="&lt;Path&gt;" class="s4" d="m697.7 1447.5h-27.4v-126.3h27.4z"/>
					<path id="&lt;Path&gt;" class="s5" d="m835.4 1447.6h-27.6v-164.9h27.6z"/>
					<path id="&lt;Path&gt;" class="s5" d="m725.3 1447.6h-27.6v-126.4h27.6z"/>
					<path id="&lt;Path&gt;" class="s6" d="m807.8 1447.5h-27.4v-143.7h27.4z"/>
					<path id="&lt;Path&gt;" class="s6" d="m615.2 1447.5h-27.6v-153.6h27.6z"/>
					<path id="&lt;Path&gt;" class="s6" d="m670.3 1447.5h-27.6v-153.6h27.6z"/>
					<path id="&lt;Path&gt;" class="s4" d="m642.7 1447.5h-27.5v-109.4h27.5z"/>
					<path id="&lt;Path&gt;" class="s4" d="m587.6 1447.5h-27.5v-143.7h27.5z"/>
					<path id="&lt;Path&gt;" class="s4" d="m862.9 1447.6h-27.5v-126.3h27.5z"/>
					<path id="&lt;Path&gt;" class="s6" d="m752.8 1447.6h-27.5v-97.5h27.5z"/>
					<path id="&lt;Path&gt;" class="s4" d="m780.4 1447.5h-27.6v-163h27.6z"/>
					<path id="&lt;Path&gt;" class="s6" d="m928.5 1438.6l-26.2 8.7-42.8-136.8 26.2-8.7z"/>
					<path id="&lt;Path&gt;" class="s4" d="m832.1 1443.4h-20.9v-24.1h20.9z"/>
					<path id="&lt;Path&gt;" class="s6" d="m776.4 1298.7h-21.1v-5.7h21.1z"/>
					<path id="&lt;Path&gt;" class="s6" d="m776.4 1308.4h-21.1v-5.7h21.1z"/>
					<path id="&lt;Path&gt;" class="s7" d="m805.4 1320.3h-23v-2.8h23z"/>
					<path id="&lt;Path&gt;" class="s5" d="m573.8 1335.5c-5.6 0-10.2-4.6-10.2-10.2v-15.6h20.4v15.6c0 5.6-4.6 10.2-10.2 10.2z"/>
					<path id="&lt;Path&gt;" class="s5" d="m667.7 1301.3h-23.3v-3.1h23.3z"/>
					<path id="&lt;Path&gt;" class="s5" d="m640.4 1444.6h-23.2v-4.9h23.2z"/>
					<path id="&lt;Path&gt;" class="s7" d="m640.4 1438h-23.2v-4.9h23.2z"/>
					<path id="&lt;Path&gt;" class="s7" d="m628.8 1428.6c-5.5 0-10-4.5-10-10 0-5.6 4.5-10.1 10-10.1 5.6 0 10 4.5 10 10.1 0 5.5-4.4 10-10 10z"/>
					<path id="&lt;Path&gt;" class="s4" d="m611.5 1390h-20.2v-48.4h20.2z"/>
					<path id="&lt;Path&gt;" class="s7" d="m694.6 1336.2h-21.7v-4.9h21.7z"/>
					<path id="&lt;Path&gt;" class="s7" d="m694.8 1361.3h-21.7v-4.9h21.7z"/>
					<path id="&lt;Path&gt;" class="s7" d="m856.2 1341.7h-15.2c-2.1 0-3.8-1.7-3.8-3.8 0-2 1.7-3.7 3.8-3.7h15.2c2 0 3.7 1.7 3.7 3.7 0 2.1-1.7 3.8-3.7 3.8z"/>
				</g>
				<path id="&lt;Compound Path&gt;" fill-rule="evenodd" class="s8" d="m938.8 853.6v806.4h-388.6v-806.4zm-378.7 796h368.8v-786.6h-368.8z"/>
				<path id="&lt;Path&gt;" class="s9" d="m491 1660.3h59.2v-806.7h-59.2z"/>
				<path id="&lt;Path&gt;" class="s8" d="m554.8 1065.2h379.5v-22h-379.5z"/>
				<path id="&lt;Path&gt;" class="s8" d="m554.8 1267.4h379.5v-22.1h-379.5z"/>
				<path id="&lt;Path&gt;" class="s8" d="m554.8 1469.5h379.5v-22h-379.5z"/>
				<path id="&lt;Path&gt;" class="s4" d="m901.6 1043.2h27.3v-142.7h-27.3z"/>
				<path id="&lt;Path&gt;" class="s4" d="m724.2 1043.2h27.3v-142.7h-27.3z"/>
				<path id="&lt;Path&gt;" class="s6" d="m874.2 1043.2h27.4v-161.9h-27.4z"/>
				<path id="&lt;Path&gt;" class="s5" d="m846.9 1043.2h27.3v-125.5h-27.3z"/>
				<path id="&lt;Path&gt;" class="s4" d="m587.4 1043.2h27.4v-125.5h-27.4z"/>
				<path id="&lt;Path&gt;" class="s10" d="m560.1 1043.2h27.3v-142.7h-27.3z"/>
				<path id="&lt;Path&gt;" class="s6" d="m696.8 1043.2h27.4v-152.5h-27.4z"/>
				<path id="&lt;Path&gt;" class="s6" d="m614.8 1043.2h27.3v-152.5h-27.3z"/>
				<path id="&lt;Path&gt;" class="s4" d="m669.5 1043.2h27.3v-161.9h-27.3z"/>
				<path id="&lt;Path&gt;" class="s5" d="m642.1 1043.2h27.4v-125.5h-27.4z"/>
				<path id="&lt;Path&gt;" class="s4" d="m819.5 1043.2h27.4v-142.7h-27.4z"/>
				<path id="&lt;Path&gt;" class="s6" d="m751.5 1034.9l26.2 8.4 41.8-136-26.1-8.4z"/>
				<path id="&lt;Path&gt;" class="s6" d="m903.8 918.3h22.9v-6.4h-22.9z"/>
				<path id="&lt;Path&gt;" class="s6" d="m903.8 923.1h22.9v-2.7h-22.9z"/>
				<path id="&lt;Path&gt;" class="s6" d="m821.8 1033.6h22.9v-6.3h-22.9z"/>
				<path id="&lt;Path&gt;" class="s6" d="m821.8 1038.4h22.9v-2.6h-22.9z"/>
				<path id="&lt;Path&gt;" class="s6" d="m727.8 987.8h19.7v-81.2h-19.7z"/>
				<path id="&lt;Path&gt;" class="s6" d="m599.4 939.5h2.8c3.3 0 5.9-2.7 5.9-5.9 0-3.3-2.6-6-5.9-6h-2.8c-3.3 0-5.9 2.7-5.9 6 0 3.2 2.6 5.9 5.9 5.9z"/>
				<path id="&lt;Path&gt;" class="s6" d="m672.2 893.3h22.1v-2.6h-22.1z"/>
				<path id="&lt;Path&gt;" class="s6" d="m672.2 898.3h22.1v-2.7h-22.1z"/>
				<path id="&lt;Path&gt;" class="s6" d="m672.2 903.2h22.1v-2.7h-22.1z"/>
				<path id="&lt;Path&gt;" class="s7" d="m848.6 952.2h24v-25.5h-24z"/>
				<path id="&lt;Path&gt;" class="s7" d="m848.6 958.3h24v-3.4h-24z"/>
				<path id="&lt;Path&gt;" class="s7" d="m562.7 1039.6h22.6v-4h-22.6z"/>
				<path id="&lt;Path&gt;" class="s7" d="m562.7 1033h22.6v-4h-22.6z"/>
				<path id="&lt;Path&gt;" class="s7" d="m562.7 1025.8h22.6v-21.7h-22.6z"/>
				<path id="&lt;Path&gt;" class="s4" d="m655.3 992.6h1c6 0 10.8-4.8 10.8-10.8 0-6-4.8-10.8-10.8-10.8h-1c-5.9 0-10.8 4.8-10.8 10.8 0 6 4.9 10.8 10.8 10.8z"/>
				<path id="&lt;Path&gt;" class="s4" d="m877 1039.6h22.2v-12.3h-22.2z"/>
				<path id="&lt;Path&gt;" class="s11" d="m789.3 917.2l22.5 6.9 1.4-4.6-22.5-6.9z"/>
				<path id="&lt;Path&gt;" class="s11" d="m698.6 910.2h24.1v-3.6h-24.1z"/>
				<path id="&lt;Path&gt;" class="s11" d="m698.5 905.3h24.1v-3.6h-24.1z"/>
				<path id="&lt;Path&gt;" class="s4" d="m710.6 933.5c6.7 0 12.1-5.4 12.1-12.1v-9.9h-24.1v9.9c0 6.7 5.4 12.1 12 12.1z"/>
				<g id="&lt;Group&gt;">
					<path id="&lt;Path&gt;" class="s5" d="m792.4 1245.3h27.4v-125.4h-27.4z"/>
					<path id="&lt;Path&gt;" class="s5" d="m655.9 1245.3h27.3v-125.4h-27.3z"/>
					<path id="&lt;Path&gt;" class="s4" d="m765.3 1245.3h27.1v-125.4h-27.1z"/>
					<path id="&lt;Path&gt;" class="s6" d="m683.2 1245.3h27.4v-142.6h-27.4z"/>
					<path id="&lt;Path&gt;" class="s6" d="m874.4 1245.4h27.4v-152.5h-27.4z"/>
					<path id="&lt;Path&gt;" class="s4" d="m819.7 1245.4h27.4v-152.5h-27.4z"/>
					<path id="&lt;Path&gt;" class="s5" d="m847.1 1245.3h27.3v-161.8h-27.3z"/>
					<path id="&lt;Path&gt;" class="s4" d="m901.8 1245.3h27.1v-142.6h-27.1z"/>
					<path id="&lt;Path&gt;" class="s4" d="m628.5 1245.3h27.4v-125.4h-27.4z"/>
					<path id="&lt;Path&gt;" class="s6" d="m737.9 1245.3h27.4v-152.5h-27.4z"/>
					<path id="&lt;Path&gt;" class="s4" d="m710.6 1245.3h27.3v-161.9h-27.3z"/>
					<path id="&lt;Path&gt;" class="s6" d="m562.9 1236.7l26 8.6 42.5-135.8-26-8.6z"/>
					<path id="&lt;Path&gt;" class="s6" d="m659.1 1151.1h20.7v-23.9h-20.7z"/>
					<path id="&lt;Path&gt;" class="s6" d="m714.4 1097.8h20.9v-5.6h-20.9z"/>
					<path id="&lt;Path&gt;" class="s6" d="m714.4 1107.4h20.9v-5.7h-20.9z"/>
					<path id="&lt;Path&gt;" class="s7" d="m685.5 1119.3h22.9v-2.9h-22.9z"/>
					<path id="&lt;Path&gt;" class="s7" d="m915.5 1134.3c5.6 0 10.1-4.5 10.1-10.1v-15.5h-20.2v15.5c0 5.6 4.5 10.1 10.1 10.1z"/>
					<path id="&lt;Path&gt;" class="s5" d="m822.3 1100.4h23.2v-3.1h-23.2z"/>
					<path id="&lt;Path&gt;" class="s6" d="m849.4 1242.7h23v-4.9h-23z"/>
					<path id="&lt;Path&gt;" class="s6" d="m849.4 1236.1h23v-4.9h-23z"/>
					<path id="&lt;Path&gt;" class="s6" d="m860.9 1226.8c5.5 0 9.9-4.5 9.9-10 0-5.5-4.4-9.9-9.9-9.9-5.5 0-10 4.4-10 9.9 0 5.5 4.5 10 10 10z"/>
					<path id="&lt;Path&gt;" class="s4" d="m878 1188.4h20.2v-48h-20.2z"/>
					<path id="&lt;Path&gt;" class="s7" d="m795.6 1135.1h21.5v-5h-21.5z"/>
					<path id="&lt;Path&gt;" class="s7" d="m795.4 1160h21.5v-4.9h-21.5z"/>
					<path id="&lt;Path&gt;" class="s7" d="m635.1 1140.5h15.1c2.1 0 3.7-1.7 3.7-3.7 0-2.1-1.6-3.8-3.7-3.8h-15.1c-2 0-3.7 1.7-3.7 3.8 0 2 1.7 3.7 3.7 3.7z"/>
				</g>
				<g id="&lt;Group&gt;">
					<g id="&lt;Group&gt;">
						<path id="&lt;Path&gt;" class="s4" d="m797.1 1649.6h26.4v-116.8h-26.4z"/>
						<path id="&lt;Path&gt;" class="s5" d="m586.3 1649.6h26.4v-116.8h-26.4z"/>
						<path id="&lt;Path&gt;" class="s5" d="m665.4 1649.6h26.4v-121h-26.4z"/>
						<path id="&lt;Path&gt;" class="s6" d="m770.7 1649.6h26.4v-121h-26.4z"/>
						<path id="&lt;Path&gt;" class="s4" d="m691.8 1649.6h26.4v-104.7h-26.4z"/>
						<path id="&lt;Path&gt;" class="s5" d="m876.2 1649.6h26.4v-158h-26.4z"/>
						<path id="&lt;Path&gt;" class="s4" d="m612.7 1649.6h26.4v-158h-26.4z"/>
						<path id="&lt;Path&gt;" class="s5" d="m823.5 1649.6h26.3v-147h-26.3z"/>
						<path id="&lt;Path&gt;" class="s4" d="m849.8 1649.6h26.4v-108.3h-26.4z"/>
						<path id="&lt;Path&gt;" class="s6" d="m902.6 1649.6h26.3v-137.6h-26.3z"/>
						<path id="&lt;Path&gt;" class="s6" d="m560.1 1649.6h26.4v-137.6h-26.4z"/>
						<path id="&lt;Path&gt;" class="s6" d="m639.1 1649.6h26.3v-142.2h-26.3z"/>
						<path id="&lt;Path&gt;" class="s5" d="m744.6 1649.6h26.2v-147.1h-26.2z"/>
						<path id="&lt;Path&gt;" class="s6" d="m718.2 1649.6h26.4v-156.1h-26.4z"/>
						<path id="&lt;Path&gt;" class="s6" d="m668.5 1558.7h20v-23h-20z"/>
						<path id="&lt;Path&gt;" class="s6" d="m721.9 1507.4h20.1v-5.5h-20.1z"/>
						<path id="&lt;Path&gt;" class="s6" d="m721.9 1516.6h20.1v-5.5h-20.1z"/>
						<path id="&lt;Path&gt;" class="s5" d="m915.8 1542.6c5.4 0 9.8-4.4 9.8-9.8v-14.9h-19.5v14.9c0 5.4 4.3 9.8 9.7 9.8z"/>
						<path id="&lt;Path&gt;" class="s5" d="m825.9 1509.9h22.4v-3h-22.4z"/>
						<path id="&lt;Path&gt;" class="s5" d="m852 1647.1h22.2v-4.8h-22.2z"/>
						<path id="&lt;Path&gt;" class="s5" d="m852 1640.7h22.2v-4.7h-22.2z"/>
						<path id="&lt;Path&gt;" class="s5" d="m863.1 1631.7c5.3 0 9.6-4.3 9.6-9.6 0-5.3-4.3-9.6-9.6-9.6-5.3 0-9.6 4.3-9.6 9.6 0 5.3 4.3 9.6 9.6 9.6z"/>
						<path id="&lt;Path&gt;" class="s4" d="m879.7 1594.7h19.4v-46.3h-19.4z"/>
						<path id="&lt;Path&gt;" class="s7" d="m800.2 1543.3h20.7v-4.8h-20.7z"/>
						<path id="&lt;Path&gt;" class="s7" d="m800 1567.3h20.7v-4.7h-20.7z"/>
						<path id="&lt;Path&gt;" class="s7" d="m645.5 1520.7h14.5c2 0 3.6-1.6 3.6-3.6 0-2-1.6-3.6-3.6-3.6h-14.5c-2 0-3.6 1.6-3.6 3.6 0 2 1.6 3.6 3.6 3.6z"/>
					</g>
					<path id="&lt;Path&gt;" class="s7" d="m747.6 1629.2h20.3v17.9h-20.3z"/>
					<path id="&lt;Path&gt;" class="s11" d="m694.4 1644.7h21.5v-4h-21.5z"/>
					<path id="&lt;Path&gt;" class="s4" d="m563.6 1577.7h19v-6.2h-19z"/>
					<path id="&lt;Path&gt;" class="s11" d="m563.6 1587.8h19v-6.2h-19z"/>
				</g>
			</g>
			<g id="&lt;Group&gt;">
				<path id="&lt;Path&gt;" class="s9" d="m1661.8 1540.9h-202.2v-229.9c0-13.7 11.1-24.7 24.7-24.7h76.4c55.8 0 101.1 45.2 101.1 101.1z"/>
				<path id="&lt;Path&gt;" class="s9" d="m1059.6 1540.9h202.2v-229.9c0-13.7-11-24.7-24.7-24.7h-76.4c-55.8 0-101.1 45.2-101.1 101.1z"/>
				<path id="&lt;Path&gt;" class="s10" d="m1028.1 1338.5c18.3 0 33.2 14.9 33.2 33.3v163.7c0 18.4-14.9 33.3-33.2 33.3-18.4 0-33.3-14.9-33.3-33.3v-163.7c0-18.4 14.9-33.3 33.3-33.3z"/>
				<path id="&lt;Path&gt;" class="s10" d="m1693.9 1338.5c18.4 0 33.2 14.9 33.2 33.3v163.7c0 18.4-14.8 33.3-33.2 33.3-18.4 0-33.3-14.9-33.3-33.3v-163.7c0-18.4 14.9-33.3 33.3-33.3z"/>
				<path id="&lt;Path&gt;" class="s10" d="m1661.8 1659.6h-608v-118.7h608z"/>
				<path id="&lt;Path&gt;" class="s8" d="m953.7 1507.5c0-29.8 24.1-53.9 53.8-53.9 29.7 0 53.8 24.1 53.8 53.9v152.1h-66.1v-99.7c-23.8-5.6-41.5-27-41.5-52.4z"/>
				<path id="&lt;Path&gt;" class="s8" d="m1768.3 1507.5c0-29.8-24.1-53.9-53.8-53.9-29.7 0-53.8 24.1-53.8 53.9v152.1h66.1v-99.7c23.8-5.6 41.5-27 41.5-52.4z"/>
				<path id="&lt;Path&gt;" class="s5" d="m1723 1509.8c0 6-4.9 10.9-10.8 10.9-6 0-10.9-4.9-10.9-10.9 0-5.9 4.9-10.8 10.9-10.8 5.9 0 10.8 4.9 10.8 10.8z"/>
				<path id="&lt;Path&gt;" class="s5" d="m1016.4 1509.8c0 6-4.8 10.9-10.8 10.9-6 0-10.8-4.9-10.8-10.9 0-5.9 4.8-10.8 10.8-10.8 6 0 10.8 4.9 10.8 10.8z"/>
				<path id="&lt;Path&gt;" class="s9" d="m1291.9 1556.6h136.6c18.1 0 32.8-14.7 32.8-32.8v-204.8c0-18.1-14.7-32.7-32.8-32.7h-136.6c-18.1 0-32.7 14.6-32.7 32.7v204.8c0 18.1 14.6 32.8 32.7 32.8z"/>
				<path id="&lt;Path&gt;" class="s8" d="m1446.5 1567.1h-172.1c-8.5 0-15.5-7-15.5-15.5v-21.8c0-8.3 6.7-15 15.1-15h172.5c8.3 0 15 6.7 15 15v22.3c0 8.3-6.7 15-15 15z"/>
				<path id="&lt;Path&gt;" class="s8" d="m1646.8 1567.1h-172.1c-8.5 0-15.5-7-15.5-15.5v-21.4c0-8.5 7-15.4 15.5-15.4h172.1c8.3 0 15 6.7 15 15v22.3c0 8.3-6.7 15-15 15z"/>
				<path id="&lt;Path&gt;" class="s8" d="m1247.2 1567.1h-172.5c-8.3 0-15.1-6.7-15.1-15v-22.3c0-8.3 6.8-15 15.1-15h172.1c8.5 0 15.5 6.9 15.5 15.4v21.9c0 8.3-6.8 15-15.1 15z"/>
				<path id="&lt;Path&gt;" class="s12" d="m1262.3 1320.3c0 0 2.8 92.8-0.5 181.8z"/>
				<path id="&lt;Path&gt;" class="s12" d="m1458.1 1320.3c0 0-2.8 92.8 0.5 181.8z"/>
			</g>
			<path id="&lt;Path&gt;" class="s13" d="m1232.2 842.7c0 0 4.5-6.9 6.8-6.3 1.1 0.4-1.3 5.1-1 6.6 0.3 1.5 1.3 5.5-0.8 6.2-2.2 0.7-6.9-4.5-5-6.5z"/>
			<g id="&lt;Group&gt;">
				<g id="&lt;Group&gt;">
					<path id="&lt;Path&gt;" class="s14" d="m1885.1 1659.6c-1.5 0-3-0.8-3.7-2.3l-54.7-119c-0.9-2 0-4.4 2-5.3 2-0.9 4.3 0 5.3 2l54.7 119c0.9 2 0 4.4-2 5.3q-0.8 0.3-1.6 0.3z"/>
					<path id="&lt;Path&gt;" class="s14" d="m2012.5 1659.6c-1.5 0-2.9-0.8-3.6-2.3l-54.7-119c-0.9-2 0-4.4 2-5.3 2-0.9 4.3 0 5.3 2l54.7 119c0.9 2 0 4.4-2 5.3q-0.8 0.3-1.7 0.3z"/>
					<path id="&lt;Path&gt;" class="s14" d="m2005.1 1645.1h-126.7c-2.2 0-4-1.8-4-4 0-2.2 1.8-4 4-4h126.7c2.2 0 4 1.8 4 4 0 2.2-1.8 4-4 4z"/>
				</g>
				<g id="&lt;Group&gt;">
					<path id="&lt;Path&gt;" class="s14" d="m1702.9 1659.6q-0.9 0-1.7-0.3c-2-0.9-2.9-3.3-2-5.3l54.8-119c0.9-2 3.2-2.9 5.2-2 2 0.9 2.9 3.3 2 5.3l-54.7 119c-0.7 1.5-2.1 2.3-3.6 2.3z"/>
					<path id="&lt;Path&gt;" class="s14" d="m1575.4 1659.6q-0.9 0-1.7-0.3c-2-0.9-2.9-3.3-1.9-5.3l54.7-119c0.9-2 3.2-2.9 5.2-2 2 0.9 2.9 3.3 2 5.3l-54.7 119c-0.7 1.5-2.1 2.3-3.6 2.3z"/>
					<path id="&lt;Path&gt;" class="s14" d="m1709.6 1645.1h-126.8c-2.2 0-4-1.8-4-4 0-2.2 1.8-4 4-4h126.8c2.2 0 3.9 1.8 3.9 4 0 2.2-1.7 4-3.9 4z"/>
				</g>
				<path id="&lt;Path&gt;" class="s15" d="m1958.7 1538.2h-134.4c-3.2 0-5.8-2.6-5.8-5.8 0-3.2 2.6-5.9 5.8-5.9h134.4c3.2 0 5.9 2.7 5.9 5.9 0 3.2-2.7 5.8-5.9 5.8z"/>
				<path id="&lt;Path&gt;" class="s14" d="m1861.3 1538.2h-255.7c-3.2 0-5.8-2.6-5.8-5.8 0-3.2 2.6-5.9 5.8-5.9h255.7c3.2 0 5.8 2.7 5.8 5.9 0 3.2-2.6 5.8-5.8 5.8z"/>
			</g>
			<g id="&lt;Group&gt;">
				<path id="&lt;Path&gt;" class="s4" d="m1914.8 1419.5c0 0-18.4 13.7-22 12.9-3.6-0.8 13.5-14.8 13.5-14.8-6.4-3.1-26.4-1.1-26.4-1.1 0 0-6.6 21.4-9.9 19.7-3.3-1.7 6.9-18.7 6.9-18.7-7.2-0.4-16 4.9-16 4.9-11.9 9.5 0.8 24.4 0.8 24.4 0 0-2.4 7.4-10 14.1 0 0-10.8 8-11.6 22.3l2 0.2c0 0 3.1-13.4 8.8-19.6q0.3-0.4 0.9-1c0.9-0.9 1.6-1.5 2-2 2.8-2.7 6.7-6.1 8.6-6.5 0 0-0.1-0.3-0.1-0.9q0 0.4 0.1 0.9c0.6 7.6 15.2 14.2 24.2 15.5 9 1.4 6.3-2.3 3.2-7.8-3.1-5.5-13-7.9-15.2-10.5-2.2-2.5 2.4-2.5 7.8 0 5.4 2.4 6.2 9 14.9 13.2 8.7 4.2 21.8-10.3 21.8-10.3-7-0.3-16.9-7.8-16.5-10.1 0.3-2.3 16.8 3.9 19.6 4.2 2.8 0.3 9.2-3.2 10.2-14.5 1-11.3-17.6-14.5-17.6-14.5z"/>
				<g id="&lt;Group&gt;">
					<path id="&lt;Path&gt;" class="s4" d="m1817 1428c0 0 20.4-11.3 10.9-26.8 0 0-7.6-9.5-15.7-11.9 0 0 4.3 23 0 23.6-4.4 0.5-3-26.1-3-26.1 0 0-21.4-10.3-29.8-9.5 0 0 13.2 22.6 8.9 22-4.3-0.5-19.3-23.3-19.3-23.3 0 0-21.9-4.1-25.4 8.9-3.6 13.1 2.1 19.6 5.4 20.4 3.2 0.8 24.1 0.5 23.6 3.2-0.6 2.7-14.7 7.1-22.5 4.6 0 0 8.6 21.5 20 20.4 11.4-1.1 14.9-8.2 22-8.7 7-0.5 12.2 1.4 8.7 3.2-3.6 1.9-15.5 0.7-21.2 5.5-5.7 4.9-10.3 7.8 0.3 10 10.6 2.2 29.5 0.8 33.3-7.3 3.8-8.2 3.8-8.2 3.8-8.2z"/>
					<path id="&lt;Path&gt;" class="s16" d="m1822.5 1447.8c-5.7-10.5-5.5-19.8-5.5-19.8-6.5-20.6-63.4-39-63.4-39 72.4 29.3 59.6 47.2 59.6 47.2 2 1.1 4.9 6.5 7 10.7 0.2 0.7 0.7 1.7 1.4 3q0.4 0.9 0.6 1.5c3.8 9.3 1.8 25.4 1.8 25.4l2.2 0.6c5-16.2-3.7-29.6-3.7-29.6z"/>
				</g>
				<g id="&lt;Group&gt;">
					<path id="&lt;Path&gt;" class="s4" d="m1849.4 1412.3c0 0-26.8-15-14.3-35.3 0 0 10-12.5 20.7-15.8 0 0-5.7 30.4 0 31.1 5.7 0.7 4-34.3 4-34.3 0 0 28.2-13.6 39.3-12.5 0 0-17.5 29.7-11.8 29 5.7-0.8 25.4-30.8 25.4-30.8 0 0 28.9-5.3 33.5 11.8 4.7 17.2-2.8 25.7-7.1 26.8-4.3 1.1-31.8 0.7-31.1 4.3 0.7 3.6 19.3 9.3 29.7 6.1 0 0-11.5 28.2-26.5 26.8-15-1.4-19.6-10.7-28.9-11.4-9.3-0.8-16.1 1.7-11.5 4.2 4.7 2.5 20.4 0.9 27.9 7.2 7.5 6.4 13.6 10.4-0.3 13.2-14 2.9-39 1.1-44-9.6-5-10.8-5-10.8-5-10.8z"/>
					<path id="&lt;Path&gt;" class="s16" d="m1933 1360.9c0 0-75 24.3-83.6 51.4 0 0 0.3 12.2-7.2 26.1 0 0-11.5 17.6-4.9 39l2.9-0.8c0 0-2.6-21.2 2.4-33.5q0.3-0.7 0.8-1.9c0.9-1.8 1.5-3.1 1.9-4 2.7-5.5 6.5-12.6 9.1-14.1 0 0-16.8-23.6 78.6-62.2z"/>
				</g>
				<path id="&lt;Path&gt;" class="s6" d="m1848.5 1523.8c29 0 52.5-23.5 52.5-52.5h-105c0 29 23.5 52.5 52.5 52.5z"/>
				<path id="&lt;Path&gt;" class="s6" d="m1895.2 1520h-93.5c-3.5 0-6.4 2.9-6.4 6.5h106.4c0-3.6-2.9-6.5-6.5-6.5z"/>
				<path id="&lt;Path&gt;" class="s6" d="m1794.3 1471.3v1.6h107.9v-1.6z"/>
			</g>
			<path id="&lt;Path&gt;" class="s17" d="m265.3 1663.4h1960.3c1.4 0 2.5-1.1 2.5-2.5v-1.3c0-1.3-1.1-2.4-2.5-2.4h-1960.3c-1.3 0-2.4 1.1-2.4 2.4v1.3c0 1.4 1.1 2.5 2.4 2.5z"/>
		</g>
	</g>
</svg>